<?xml version="1.0" standalone="no"?>
<!DOCTYPE svg PUBLIC "-//W3C//DTD SVG 20010904//EN"
 "http://www.w3.org/TR/2001/REC-SVG-20010904/DTD/svg10.dtd">
<svg version="1.0" xmlns="http://www.w3.org/2000/svg"
 width="300.000000pt" height="300.000000pt" viewBox="0 0 300.000000 300.000000"
 preserveAspectRatio="xMidYMid meet">
<metadata>
Created by potrace 1.10, written by Peter Selinger 2001-2011
</metadata>
<g transform="translate(0.000000,300.000000) scale(0.100000,-0.100000)"
fill="#000000" stroke="none">
<path d="M1132 2634 c-23 -6 -74 -31 -113 -54 -101 -61 -122 -100 -76 -137 30
-23 49 -57 42 -76 -3 -7 -21 -21 -39 -30 -28 -13 -96 -94 -96 -114 0 -4 -9
-16 -19 -27 -24 -26 -30 -102 -11 -133 13 -19 10 -25 -24 -59 -28 -28 -36 -43
-32 -60 4 -13 1 -26 -4 -29 -18 -11 -130 -167 -130 -181 0 -7 5 -16 10 -19 19
-12 10 -41 -20 -64 -40 -29 -84 -125 -70 -151 8 -15 5 -24 -15 -44 -15 -15
-22 -31 -19 -41 4 -9 -1 -24 -9 -33 -11 -12 -13 -22 -7 -32 20 -32 12 -43 -26
-37 -66 11 -97 -24 -62 -68 18 -23 19 -28 6 -43 -8 -9 -18 -25 -21 -34 -4 -10
-15 -18 -25 -18 -11 0 -31 -10 -46 -21 -23 -18 -27 -28 -24 -62 4 -57 27 -68
68 -33 l33 27 23 -22 c13 -12 35 -23 50 -25 14 -1 36 -12 48 -23 29 -27 57
-26 142 3 107 36 165 70 210 123 54 64 57 70 45 91 -8 15 -5 24 14 42 14 13
25 29 25 35 0 17 -33 45 -53 45 -24 0 -21 7 13 47 16 18 30 43 30 53 0 14 7
20 23 20 12 0 55 7 94 17 40 9 75 14 79 11 3 -3 0 -15 -7 -26 -11 -18 -10 -24
6 -43 17 -18 27 -20 72 -15 31 4 62 1 77 -6 23 -10 25 -15 20 -48 -5 -33 -3
-40 27 -63 l33 -26 -20 -23 c-12 -13 -32 -42 -45 -66 l-23 -42 21 -22 c12 -12
32 -22 45 -23 21 -2 23 -6 21 -54 -1 -29 -10 -65 -20 -81 -17 -29 -16 -30 7
-55 19 -20 31 -25 52 -21 33 7 34 2 8 -31 -11 -14 -20 -33 -20 -43 0 -19 30
-50 48 -50 7 0 76 26 154 57 148 59 195 91 183 121 -18 43 -16 53 14 81 27 25
96 47 110 34 3 -2 -8 -16 -22 -31 -34 -35 -34 -67 -2 -88 14 -9 25 -22 25 -29
0 -7 11 -24 25 -37 l25 -25 -30 -38 c-17 -21 -30 -43 -30 -48 0 -6 12 -24 27
-39 21 -22 24 -31 15 -40 -36 -36 8 -83 68 -75 22 3 40 1 40 -4 0 -5 16 -27
36 -49 35 -39 36 -41 20 -65 -9 -13 -16 -31 -16 -38 0 -27 35 -47 82 -47 32 0
50 -6 63 -20 18 -19 17 -21 -18 -55 -42 -41 -45 -57 -17 -85 16 -16 33 -20 94
-20 80 0 98 -10 72 -39 -21 -23 -20 -34 2 -54 40 -36 159 -9 196 45 9 12 16
34 16 47 0 17 20 44 70 92 39 37 70 74 70 83 0 9 -11 27 -23 39 -13 12 -22 27
-20 34 2 6 28 24 56 38 94 49 123 90 90 127 -17 20 -17 21 1 32 94 57 113 81
89 115 -14 21 -21 23 -69 18 l-54 -6 16 31 c13 26 14 35 3 55 -12 23 -10 27
44 75 62 54 71 82 37 113 -15 14 -17 21 -9 31 6 8 9 23 6 35 -4 15 6 36 34 71
21 27 39 56 39 64 0 8 -12 26 -27 40 l-26 24 23 25 c13 14 25 38 26 53 1 15 7
49 14 76 6 27 8 61 5 75 -3 16 0 34 9 46 12 17 10 24 -20 69 -24 36 -31 53
-23 62 13 16 39 125 33 136 -3 4 2 21 11 38 15 29 15 31 -9 55 -14 14 -30 25
-36 25 -18 0 -52 -20 -88 -52 -18 -16 -58 -43 -89 -60 -64 -36 -92 -83 -72
-119 13 -25 1 -54 -42 -106 -25 -29 -26 -36 -18 -73 9 -41 9 -43 -36 -82 -25
-22 -45 -46 -45 -53 0 -8 12 -23 26 -34 17 -14 24 -26 20 -37 -4 -10 1 -25 11
-36 15 -17 15 -21 1 -52 -10 -21 -13 -38 -7 -47 14 -23 11 -27 -36 -55 -51
-30 -73 -60 -56 -77 18 -18 13 -38 -15 -64 -19 -17 -24 -30 -20 -47 3 -13 -1
-32 -10 -45 -14 -20 -14 -24 0 -46 9 -14 25 -25 36 -25 39 0 15 -38 -55 -90
-57 -42 -68 -67 -40 -90 19 -16 10 -26 -30 -34 -24 -5 -33 -1 -48 20 -16 22
-17 29 -7 55 11 27 10 32 -10 54 -13 14 -32 25 -42 25 -10 0 -18 6 -18 13 0 8
-11 24 -25 37 -32 30 -31 44 1 83 22 26 25 37 20 69 -5 30 -2 45 15 67 20 28
21 29 3 57 -10 16 -28 41 -42 55 -20 23 -22 30 -12 49 6 12 9 32 6 45 -4 14 1
36 11 53 17 29 17 31 -1 51 -10 11 -34 21 -54 23 l-36 3 -1 58 c-1 32 -7 63
-13 69 -7 7 -12 24 -12 38 0 15 -9 35 -20 45 -11 10 -20 30 -20 45 0 38 -29
60 -78 60 -31 0 -56 -10 -103 -40 -34 -22 -67 -40 -73 -40 -6 0 -38 -18 -70
-40 l-59 -40 -19 31 c-14 24 -24 30 -41 26 -12 -3 -37 -8 -56 -12 l-33 -8 14
29 c18 35 17 136 -1 158 -11 13 -9 21 8 49 37 60 19 107 -40 107 -22 0 -29 5
-29 20 0 11 -6 29 -12 40 -11 17 -10 26 5 51 24 43 21 74 -9 98 -24 19 -25 22
-13 62 12 40 12 43 -15 65 -15 13 -35 24 -45 24 -10 0 -26 9 -36 20 -17 19
-17 21 19 60 20 23 42 52 48 66 11 23 8 29 -23 59 -19 18 -44 47 -57 64 -18
24 -31 31 -56 31 -19 0 -44 8 -57 18 -35 27 -59 31 -107 16z m75 -30 c35 -9
25 -45 -20 -72 -58 -36 -36 -39 25 -4 29 17 66 32 83 34 24 2 31 -2 39 -24 10
-28 4 -48 -31 -98 l-18 -25 30 19 c17 11 39 25 50 33 22 15 45 17 45 4 0 -5
-31 -43 -70 -84 -73 -78 -84 -95 -49 -77 11 7 28 9 36 6 14 -6 13 -10 -7 -31
l-23 -24 69 -3 c67 -3 69 -4 66 -28 -1 -13 -16 -45 -32 -69 -16 -25 -28 -46
-27 -47 1 -1 21 1 44 5 59 11 69 -3 36 -48 -14 -20 -40 -48 -57 -63 l-31 -28
48 7 c55 7 62 -7 25 -54 -13 -15 -29 -39 -36 -52 -13 -22 -12 -23 5 -16 76 32
125 47 139 41 15 -6 15 -8 -1 -34 -9 -15 -38 -47 -63 -71 l-47 -43 47 6 c59 7
69 -6 33 -44 l-26 -27 25 -7 c14 -3 26 -10 26 -15 0 -5 -28 -34 -62 -65 l-61
-56 72 0 c53 0 82 5 112 21 40 20 70 17 37 -4 -15 -10 -15 -12 0 -24 15 -12
11 -19 -43 -69 l-60 -56 52 26 c58 29 63 30 63 16 0 -5 -25 -26 -55 -46 -30
-20 -55 -38 -55 -39 0 -6 67 12 87 23 14 8 24 9 28 2 3 -5 15 -10 26 -10 10 0
19 -4 19 -9 0 -12 -56 -60 -130 -112 -33 -24 -59 -44 -57 -45 1 -1 49 11 106
27 58 16 117 29 133 29 42 0 35 -26 -18 -63 -81 -56 -83 -58 -47 -46 63 21 56
2 -11 -29 -75 -35 -80 -37 -71 -22 9 15 0 12 -39 -11 -38 -22 -50 -37 -15 -19
11 6 79 14 150 16 115 5 129 3 129 -11 0 -23 -127 -149 -181 -180 -53 -30 -39
-33 27 -5 43 19 84 19 84 1 0 -5 -46 -27 -102 -49 -57 -23 -130 -53 -163 -66
-32 -14 -63 -22 -67 -20 -14 9 -8 21 16 32 13 6 37 22 52 37 16 14 62 47 102
72 40 25 72 47 70 48 -2 2 -52 -10 -113 -26 -148 -40 -189 -46 -183 -28 2 8
27 26 54 41 l49 27 -37 -6 c-31 -5 -38 -3 -38 11 0 9 15 25 33 37 31 19 31 20
5 13 -16 -3 -28 -3 -28 0 0 15 49 58 115 101 39 25 61 44 50 41 -11 -3 -64
-19 -119 -36 -54 -16 -107 -30 -117 -30 -31 0 -22 18 21 40 22 11 40 26 40 32
0 9 -3 9 -12 0 -7 -7 -19 -12 -27 -12 -23 0 8 28 114 106 52 37 92 70 91 72
-2 2 -38 -11 -80 -28 -45 -19 -81 -28 -88 -24 -7 5 -23 7 -35 6 -29 -4 -37 14
-13 31 11 7 17 17 13 21 -4 3 6 20 22 36 l29 30 -62 0 c-63 0 -77 10 -44 30
16 11 16 11 -1 6 -88 -28 -131 -37 -145 -31 -23 9 -4 18 71 34 32 7 68 22 80
34 13 12 32 28 43 35 34 22 -177 7 -291 -21 -62 -15 -104 -21 -110 -15 -6 6
-5 12 5 19 11 8 9 9 -12 5 -42 -9 -41 8 2 43 23 18 60 35 92 42 29 6 60 16 68
21 12 7 11 8 -5 4 -11 -3 -38 -8 -60 -12 -63 -11 -101 -31 -158 -82 -29 -26
-63 -55 -77 -64 l-25 -18 43 7 c25 3 42 2 42 -4 0 -6 -24 -13 -54 -16 -47 -5
-155 -52 -144 -63 5 -5 169 37 207 53 19 8 38 10 43 5 4 -4 -34 -36 -89 -71
l-98 -62 63 7 c39 4 62 3 62 -3 0 -6 -34 -13 -76 -17 -74 -7 -196 -53 -167
-63 10 -4 195 42 296 73 10 3 17 0 17 -8 0 -7 -44 -30 -99 -52 -111 -43 -170
-76 -136 -76 11 0 60 9 109 20 105 23 96 22 96 11 0 -5 -9 -13 -20 -16 -11 -4
-18 -10 -15 -14 2 -5 -7 -13 -21 -20 -14 -6 -22 -15 -19 -21 9 -14 -47 -45
-140 -79 -114 -41 -145 -47 -145 -27 0 9 5 16 11 16 18 0 180 72 175 78 -10 9
-160 -20 -208 -40 -25 -11 -55 -18 -65 -15 -13 3 -8 8 22 21 22 9 49 21 60 26
13 6 -9 7 -60 4 -116 -8 -125 -10 -125 -39 0 -13 -4 -27 -10 -30 -6 -4 -10 8
-10 29 0 45 19 56 102 57 35 0 86 4 113 7 40 6 50 11 50 26 0 15 15 25 70 43
39 12 57 21 40 19 -74 -10 -193 -36 -227 -50 -46 -20 -48 -20 -48 -1 0 8 16
19 39 25 31 8 131 57 131 63 0 1 -36 2 -80 2 -49 0 -84 5 -91 12 -19 19 -6 23
36 12 64 -18 169 -3 232 33 30 17 53 32 51 33 -5 5 -142 -28 -175 -41 -7 -3
-13 0 -13 6 0 7 9 14 20 17 34 9 22 23 -20 23 -22 0 -40 5 -40 10 0 6 26 10
58 10 48 1 62 5 92 30 l34 30 -51 0 c-29 0 -63 -4 -77 -10 -17 -6 -27 -6 -32
1 -11 18 3 21 98 27 91 4 95 6 158 50 91 63 93 66 20 36 -46 -19 -90 -28 -151
-32 -104 -6 -121 6 -69 50 25 20 29 28 17 28 -30 0 -18 14 57 65 41 28 73 51
71 53 -1 1 -14 -2 -28 -7 -15 -6 -29 -6 -32 -1 -3 4 23 18 57 29 68 23 114 48
68 37 -14 -4 -45 -9 -70 -13 -25 -3 -53 -10 -62 -14 -18 -10 -35 5 -19 15 5 4
48 13 96 21 48 9 96 20 106 26 13 7 19 6 19 -1 0 -7 8 -9 20 -5 36 11 21 -11
-19 -28 -38 -17 -196 -119 -216 -139 -14 -14 24 5 135 70 52 30 119 78 148
106 33 32 52 45 52 34 0 -9 -29 -43 -65 -77 -36 -33 -65 -65 -65 -70 0 -5 -19
-20 -43 -34 -23 -14 -51 -35 -62 -47 l-20 -22 35 7 c19 4 46 12 60 18 21 8 22
11 7 14 -22 6 -12 23 13 23 11 0 59 11 106 25 91 26 114 30 114 17 0 -4 -40
-19 -90 -32 -49 -13 -90 -28 -90 -32 0 -14 187 16 317 51 35 10 40 14 36 35
-4 18 5 36 37 70 23 25 50 61 60 80 l18 36 -37 -5 c-56 -9 -68 6 -43 47 11 18
32 44 46 57 34 32 33 45 -3 38 -39 -8 -71 2 -71 23 0 9 16 37 35 61 19 24 35
47 35 52 0 4 -24 7 -54 7 -30 0 -57 4 -60 9 -3 5 4 20 15 35 l20 26 -31 0
c-18 0 -29 4 -25 10 3 6 -3 10 -14 10 -42 0 -23 37 44 84 35 26 67 52 71 59 5
6 0 5 -11 -3 -13 -11 -45 -15 -112 -16 -89 -1 -96 -3 -124 -29 -37 -37 -37
-46 3 -34 42 11 49 2 18 -23 -129 -103 -217 -189 -145 -142 14 9 28 14 32 10
3 -3 4 -7 2 -9 -2 -1 -30 -20 -62 -41 -32 -21 -61 -36 -65 -32 -4 4 3 15 14
24 12 9 27 28 34 42 l13 24 -26 -17 c-30 -20 -37 -21 -37 -7 0 5 19 19 43 31
44 23 168 112 162 117 -7 7 -72 -29 -107 -59 -21 -18 -41 -29 -45 -25 -5 4 1
14 12 22 11 8 29 21 40 29 16 12 16 13 3 9 -10 -4 -18 -1 -18 5 0 6 12 14 28
17 31 8 82 51 82 71 0 7 7 13 15 13 9 0 12 6 9 15 -4 10 -14 13 -30 9 -13 -4
-24 -2 -24 4 0 11 23 22 48 22 19 1 72 44 72 59 0 5 12 24 26 41 15 17 24 33
21 36 -7 8 -135 -52 -173 -81 -38 -29 -44 -30 -44 -10 0 18 70 66 152 105 67
32 71 33 105 24z m-87 -323 c0 -4 11 -20 25 -35 14 -15 32 -43 40 -62 8 -20
25 -38 41 -44 21 -8 25 -15 19 -33 -19 -60 -17 -84 8 -104 l25 -19 -19 -34
c-23 -45 -24 -43 7 -80 l27 -31 -22 -27 c-11 -15 -31 -44 -43 -64 -33 -54
-110 -77 -139 -42 -11 13 -25 15 -79 9 l-65 -7 26 29 c15 15 34 41 44 56 17
27 17 28 -5 52 -21 23 -22 26 -8 42 9 10 23 36 32 58 10 22 26 50 37 61 28 30
21 56 -19 73 -17 8 -32 21 -32 28 0 8 -7 24 -15 37 -21 31 -13 46 45 90 28 21
50 42 50 47 0 5 5 9 10 9 6 0 10 -4 10 -9z m-130 -160 c0 -6 -4 -13 -10 -16
-5 -3 -10 -15 -10 -25 0 -12 -23 -34 -65 -61 -36 -23 -63 -44 -61 -46 2 -2 42
16 88 41 88 48 98 52 98 38 0 -5 -32 -23 -71 -41 -39 -18 -69 -35 -66 -37 2
-3 41 14 86 37 45 23 85 38 88 35 9 -8 8 -9 -82 -54 -44 -22 -91 -52 -105 -68
-28 -30 -24 -28 68 29 35 22 66 37 69 33 8 -7 9 -6 -52 -46 -27 -17 -41 -29
-30 -25 38 14 70 18 60 8 -14 -14 -92 -43 -115 -43 -11 0 -25 -9 -32 -20 -15
-23 -33 -27 -24 -5 10 26 -8 17 -66 -35 -31 -28 -59 -46 -62 -41 -4 5 13 25
36 45 23 20 36 36 30 36 -7 0 -12 5 -12 10 0 6 10 10 23 10 19 0 107 54 107
66 0 2 -14 1 -32 -3 -25 -5 -30 -3 -23 8 6 11 5 12 -6 2 -15 -15 -29 -17 -29
-4 0 5 31 32 70 61 38 28 79 67 90 86 21 32 40 45 40 25z m1970 -201 c0 -5
-17 -29 -37 -52 -31 -34 -33 -38 -11 -24 35 23 40 10 17 -38 -22 -45 -23 -49
-9 -41 6 3 10 1 10 -4 0 -6 -37 -35 -82 -66 -46 -30 -78 -55 -73 -55 6 0 40 8
77 17 37 9 70 14 74 10 4 -4 -6 -21 -22 -39 -23 -24 -25 -29 -9 -23 33 13 65
18 65 10 0 -16 -87 -97 -123 -116 -22 -11 -37 -23 -34 -25 7 -7 94 35 108 52
16 19 39 18 39 -2 0 -19 -58 -76 -71 -69 -4 3 -30 -8 -56 -25 -26 -16 -43 -30
-37 -30 6 0 28 11 48 25 21 14 42 23 47 19 5 -3 16 0 24 6 8 6 19 9 25 5 8 -5
0 -19 -22 -42 l-33 -34 28 6 c39 10 34 -8 -13 -40 -22 -15 -40 -34 -40 -41 0
-7 -21 -31 -47 -54 -52 -45 -45 -46 54 -5 32 13 62 20 67 15 14 -14 -31 -67
-94 -108 -33 -21 -58 -41 -55 -44 3 -3 24 -2 45 2 22 4 42 4 45 0 2 -3 -46
-39 -106 -79 -61 -40 -109 -74 -107 -77 2 -2 54 13 116 33 61 21 115 34 119
29 4 -4 -1 -12 -11 -18 -10 -6 -27 -19 -38 -30 -12 -12 -57 -45 -102 -74 -128
-84 -129 -85 -58 -63 67 20 112 25 112 11 0 -5 -11 -19 -25 -32 -14 -13 -25
-29 -25 -36 0 -7 -21 -30 -47 -50 -27 -20 -39 -34 -28 -31 213 62 220 64 230
48 6 -10 -84 -66 -205 -127 -38 -20 -70 -37 -70 -38 0 -5 82 3 120 12 60 15
70 15 70 -3 0 -17 -116 -86 -195 -117 -30 -11 -54 -23 -52 -25 3 -2 16 1 31 7
15 5 32 10 37 10 21 0 -34 -61 -77 -86 -42 -25 -63 -45 -26 -25 11 6 27 10 38
10 10 -1 40 7 66 17 26 10 50 15 54 11 9 -9 -141 -155 -164 -159 -27 -5 -26
-28 2 -28 36 0 33 -14 -11 -47 -29 -22 -47 -28 -90 -28 -57 -1 -69 10 -27 25
18 7 31 7 39 0 10 -8 22 -7 44 4 51 27 50 40 -3 34 -49 -6 -59 5 -28 28 15 12
14 13 -13 14 -91 3 -221 12 -225 17 -6 6 37 42 114 93 l58 40 -64 0 c-73 0
-82 4 -67 33 10 18 9 19 -15 13 -14 -3 -46 -9 -71 -13 -67 -9 -59 14 29 83 41
32 73 60 71 62 -2 3 -25 -3 -51 -12 -58 -20 -88 -21 -81 -3 3 9 -3 13 -16 13
-36 -1 -33 49 4 75 17 12 28 23 26 25 -2 2 -28 -4 -58 -14 -133 -46 -173 -31
-76 28 39 23 55 40 63 66 6 19 8 34 4 34 -4 0 -33 -11 -64 -25 -94 -42 -112
-31 -46 29 22 20 40 40 40 45 0 5 15 21 33 36 l32 26 -35 -5 c-121 -18 -133 1
-40 64 33 22 60 42 60 44 0 5 -86 -18 -123 -33 -36 -14 -47 -14 -47 2 0 6 48
46 106 87 58 41 101 76 95 78 -6 2 -57 -8 -114 -22 -169 -43 -176 -33 -43 57
48 33 85 61 83 63 -2 2 -37 -7 -77 -21 -125 -43 -131 -32 -27 47 39 30 81 61
92 67 19 11 18 12 -5 7 -74 -15 -108 -17 -114 -8 -4 6 3 16 15 23 20 10 21 12
5 21 -17 9 -17 11 0 29 21 23 18 23 -36 4 -52 -18 -60 -19 -60 -2 0 7 34 32
75 56 41 23 75 44 75 46 0 2 -19 -2 -41 -10 -99 -35 -105 -4 -8 37 77 33 63
35 -57 8 -143 -32 -212 -23 -129 17 19 9 35 20 35 24 0 5 41 29 90 55 50 25
90 52 90 60 0 10 13 14 45 14 66 0 69 -20 9 -81 -52 -53 -50 -57 16 -34 23 8
51 15 61 15 29 0 5 -32 -40 -52 l-36 -16 58 -1 c31 -1 57 -5 57 -10 0 -5 -19
-21 -42 -35 -40 -25 -36 -27 22 -10 42 12 18 -24 -40 -60 -33 -21 -60 -38 -60
-39 0 -2 48 -1 106 1 141 6 149 -5 45 -57 -44 -23 -81 -43 -81 -46 0 -2 32 -1
72 2 52 5 69 3 64 -5 -9 -16 -114 -95 -151 -115 -40 -22 -17 -21 80 2 44 11
84 16 88 12 5 -5 -14 -25 -41 -45 -78 -57 -84 -72 -15 -37 62 31 93 39 93 23
0 -5 -43 -40 -95 -77 -52 -38 -93 -70 -91 -72 1 -1 35 11 75 28 91 38 112 28
58 -26 -21 -21 -35 -41 -32 -45 3 -5 -11 -20 -30 -33 -27 -19 -32 -26 -20 -30
8 -4 15 -13 15 -21 0 -13 5 -13 40 -1 57 20 61 1 9 -51 -46 -47 -43 -53 14
-29 48 20 107 20 107 0 0 -15 -84 -82 -138 -110 -55 -27 -30 -28 43 0 112 42
139 31 52 -22 l-52 -32 45 5 c25 3 75 12 112 20 83 17 98 18 98 1 0 -8 -42
-35 -92 -61 -88 -44 -90 -47 -49 -41 34 4 67 23 142 77 61 44 96 75 92 84 -3
8 15 25 47 45 28 17 50 33 48 34 -2 2 -48 -7 -103 -21 -110 -26 -135 -29 -135
-14 0 6 5 10 12 10 23 0 116 63 111 75 -2 8 42 40 112 81 105 61 148 92 113
79 -45 -16 -272 -65 -277 -59 -8 8 36 44 129 106 41 27 77 52 79 54 6 6 -100
-41 -150 -66 -21 -11 -40 -16 -43 -11 -6 8 141 99 242 150 24 13 42 24 40 26
-2 2 -53 -12 -112 -30 -60 -19 -115 -35 -123 -35 -28 0 -9 17 65 56 53 29 76
47 74 58 -2 9 1 16 5 16 4 0 24 14 43 30 l35 30 -68 -30 c-78 -34 -77 -34 -77
-20 0 6 37 34 82 62 47 30 75 54 67 56 -8 3 -17 9 -20 14 -3 5 -30 0 -60 -11
-60 -23 -69 -25 -69 -12 0 4 24 18 53 30 61 25 199 103 193 108 -2 3 -27 -7
-54 -21 -95 -48 -162 -75 -167 -67 -2 5 18 23 47 40 28 17 48 34 46 36 -3 3
-35 -8 -71 -25 -70 -32 -87 -36 -87 -21 0 8 48 41 187 127 14 9 5 9 -36 2 -65
-11 -85 0 -55 33 19 22 19 22 -3 15 -44 -14 -22 9 30 32 28 12 63 32 77 43
l25 20 -43 -17 c-24 -9 -46 -13 -50 -9 -4 4 -1 10 5 12 22 8 184 126 179 130
-3 3 -42 -11 -88 -31 -91 -39 -98 -41 -98 -26 0 5 15 17 33 25 30 14 30 15 5
10 -45 -9 -32 10 24 36 29 13 74 43 102 67 47 40 86 54 86 32z m-1153 -463
c10 -6 8 -15 -9 -37 -20 -28 -20 -30 -4 -54 9 -15 24 -26 34 -26 10 -1 25 -16
35 -38 17 -35 17 -38 -1 -52 -35 -30 -52 -62 -41 -82 9 -16 6 -18 -25 -18 -30
0 -34 2 -29 23 4 12 14 34 25 49 23 34 23 53 -3 79 -17 17 -28 20 -56 14 -19
-3 -33 -3 -31 2 2 4 10 20 18 36 12 25 11 29 -13 55 -43 45 -36 58 31 57 31 0
63 -4 69 -8z"/>
<path d="M1262 2480 l-43 -48 36 12 c38 14 64 41 65 69 0 26 -11 20 -58 -33z"/>
<path d="M1220 2496 c-78 -39 -109 -60 -114 -78 -9 -37 51 -11 119 50 27 23
46 44 44 46 -2 3 -24 -6 -49 -18z"/>
<path d="M1252 2346 c-44 -38 -67 -62 -57 -64 8 -2 20 0 28 5 19 12 111 113
106 117 -2 1 -37 -25 -77 -58z"/>
<path d="M1263 2284 c-17 -7 -35 -19 -39 -25 -11 -19 48 -1 71 22 22 22 13 23
-32 3z"/>
<path d="M1256 2216 l-16 -25 53 -3 c66 -4 71 -21 23 -84 -20 -26 -36 -50 -36
-54 0 -5 19 -6 42 -3 31 5 44 2 53 -11 11 -15 16 -13 45 24 18 23 31 42 29 44
-2 2 -26 -2 -54 -9 -55 -15 -64 -12 -49 13 6 9 25 43 43 75 l32 57 -74 0 c-68
0 -76 -2 -91 -24z"/>
<path d="M1350 1952 c-58 -23 -67 -52 -16 -52 28 0 45 8 74 35 36 33 36 34 12
34 -14 0 -45 -8 -70 -17z"/>
<path d="M1456 1865 c-33 -14 -65 -25 -72 -25 -15 0 -114 -113 -114 -130 0 -8
8 -10 23 -6 12 3 29 6 38 6 9 0 30 12 46 28 17 15 58 51 92 80 55 49 74 73 54
72 -5 -1 -35 -12 -67 -25z"/>
<path d="M1453 1743 c-33 -3 -43 -8 -43 -22 0 -9 -5 -22 -12 -29 -9 -9 -9 -15
-1 -23 13 -13 46 4 91 44 21 20 29 39 15 35 -5 -1 -27 -3 -50 -5z"/>
<path d="M1360 1703 c-8 -3 -28 -12 -45 -19 -16 -8 -55 -23 -85 -34 l-55 -20
60 6 c36 4 77 16 102 30 56 32 70 54 23 37z"/>
<path d="M1445 1641 c-22 -11 -59 -25 -82 -31 -24 -6 -43 -12 -43 -14 0 -1 26
-1 58 2 46 3 63 10 87 33 35 34 33 35 -20 10z"/>
<path d="M1255 1609 l-40 -18 35 6 c19 4 46 9 60 13 22 6 23 7 5 12 -11 2 -38
-3 -60 -13z"/>
<path d="M700 1599 c-19 -10 -51 -32 -70 -49 l-35 -31 80 5 c57 3 106 14 170
38 102 38 87 53 -18 18 -38 -13 -80 -20 -107 -18 l-45 3 36 17 c38 17 60 39
37 37 -7 -1 -29 -10 -48 -20z"/>
<path d="M1133 1606 c-35 -7 -66 -16 -70 -21 -11 -11 89 3 134 20 47 17 19 17
-64 1z"/>
<path d="M1175 1570 l-50 -7 60 0 c33 0 74 3 90 7 28 7 28 8 -10 7 -22 0 -62
-3 -90 -7z"/>
<path d="M1330 1567 l-45 -12 49 -3 c35 -2 54 1 65 12 14 15 13 16 -4 15 -11
-1 -40 -6 -65 -12z"/>
<path d="M1035 1529 c-25 -12 -31 -17 -15 -14 14 3 42 8 62 11 21 4 35 10 32
15 -8 14 -35 10 -79 -12z"/>
<path d="M1379 1520 c-30 -24 -22 -24 66 -1 l70 19 -56 1 c-43 1 -63 -4 -80
-19z"/>
<path d="M1533 1487 c-45 -36 -49 -42 -35 -53 14 -10 9 -15 -34 -38 -27 -15
-38 -24 -24 -20 32 9 43 16 126 92 59 53 65 62 44 61 -14 0 -48 -19 -77 -42z"/>
<path d="M1440 1491 c-117 -42 -126 -50 -57 -51 53 0 64 4 114 40 65 47 51 49
-57 11z"/>
<path d="M1517 1394 c-27 -14 -46 -28 -43 -31 5 -5 96 44 96 52 0 7 1 7 -53
-21z"/>
<path d="M1543 1307 c-86 -65 -115 -91 -73 -66 14 9 57 34 95 57 39 22 79 47
90 56 20 15 19 15 -5 15 -15 0 -59 -26 -107 -62z"/>
<path d="M1593 1225 c-99 -26 -223 -75 -223 -89 0 -2 57 14 127 36 70 21 134
37 142 36 10 -2 -6 -19 -43 -46 -62 -44 -67 -53 -14 -26 35 18 168 113 168
120 0 8 -36 1 -157 -31z"/>
<path d="M672 1135 c-41 -7 -76 -15 -78 -17 -10 -10 174 6 201 17 l30 13 -40
0 c-22 0 -73 -6 -113 -13z"/>
<path d="M1597 1080 c-44 -8 -104 -37 -152 -74 -34 -26 0 -18 107 26 141 57
149 65 45 48z"/>
<path d="M1568 1007 c-87 -44 -157 -82 -155 -83 1 -2 38 7 82 20 44 13 110 29
148 36 58 12 75 21 120 61 l52 48 -45 0 c-36 -1 -77 -17 -202 -82z"/>
<path d="M2883 1866 c-15 -13 -44 -33 -63 -45 -21 -12 -28 -21 -18 -21 15 0
118 74 118 85 0 9 -9 5 -37 -19z"/>
<path d="M2860 1757 c-14 -12 -37 -30 -50 -40 -22 -15 -19 -15 15 2 39 18 87
61 69 61 -5 0 -20 -11 -34 -23z"/>
<path d="M1960 1661 c0 -6 -19 -21 -42 -35 -27 -16 -36 -26 -25 -26 30 0 10
-17 -30 -25 -32 -6 -35 -9 -18 -15 41 -17 62 -9 118 45 31 31 57 58 57 60 0 3
-13 5 -30 5 -16 0 -30 -4 -30 -9z"/>
<path d="M2809 1627 c-42 -12 -89 -32 -105 -45 l-29 -23 45 6 c80 11 114 24
150 54 41 36 38 36 -61 8z"/>
<path d="M2870 1583 c-25 -9 -201 -116 -197 -120 6 -5 190 84 217 106 24 20
15 26 -20 14z"/>
<path d="M1760 1534 c-25 -15 -24 -15 15 -10 22 3 48 6 58 6 10 0 15 5 12 10
-9 15 -56 11 -85 -6z"/>
<path d="M1935 1449 c-44 -28 -69 -48 -55 -44 33 9 140 60 165 79 20 15 19 15
-5 15 -14 0 -61 -23 -105 -50z"/>
<path d="M1996 1424 c-56 -20 -100 -64 -65 -64 11 0 129 70 129 76 0 7 -25 2
-64 -12z"/>
<path d="M2830 1397 c-51 -25 -60 -33 -42 -35 21 -3 94 37 108 60 7 12 6 11
-66 -25z"/>
<path d="M2805 1334 c-52 -27 -99 -59 -75 -51 8 3 31 11 51 18 38 12 103 58
83 59 -6 0 -33 -12 -59 -26z"/>
<path d="M1934 1334 c-18 -15 -18 -15 9 -9 62 13 117 17 117 9 0 -5 -38 -36
-84 -69 -47 -33 -83 -61 -82 -63 2 -2 31 6 65 18 121 40 123 12 4 -68 -45 -31
-81 -57 -80 -59 5 -4 101 27 106 35 4 4 39 29 78 56 40 26 75 51 78 57 4 5
-20 9 -55 9 -79 0 -75 12 16 62 l69 38 -111 0 c-85 0 -115 -4 -130 -16z"/>
<path d="M2767 1259 c-32 -23 -56 -44 -53 -47 5 -5 116 74 116 83 0 8 -3 6
-63 -36z"/>
<path d="M2868 1229 c-10 -5 -48 -18 -85 -27 -59 -16 -153 -56 -153 -66 0 -2
37 8 81 21 45 12 93 23 108 23 17 0 38 11 56 30 29 30 25 38 -7 19z"/>
<path d="M2119 1114 c-13 -15 -59 -51 -101 -81 -43 -30 -78 -56 -78 -58 0 -2
19 3 43 11 23 8 56 14 72 12 21 -1 45 8 78 30 26 18 47 35 47 37 0 2 -24 -7
-52 -20 -33 -16 -56 -21 -62 -15 -5 5 -8 11 -5 13 27 17 105 97 95 97 -7 0
-23 -12 -37 -26z"/>
<path d="M2695 1090 c-27 -17 -46 -30 -42 -30 13 0 85 39 92 50 8 14 7 13 -50
-20z"/>
<path d="M2653 1012 c-62 -43 -116 -81 -120 -86 -16 -17 62 7 82 24 11 10 60
46 109 79 68 46 84 61 65 61 -13 -1 -73 -35 -136 -78z"/>
<path d="M2105 950 c-38 -16 -73 -26 -77 -23 -9 5 -72 -37 -65 -43 5 -6 117
15 148 27 27 11 91 70 73 68 -5 -1 -40 -14 -79 -29z"/>
<path d="M2017 789 c-32 -22 -57 -42 -57 -45 0 -2 17 3 38 12 20 9 54 23 75
32 39 16 50 42 19 42 -10 0 -44 -18 -75 -41z"/>
<path d="M2650 806 c-47 -13 -103 -35 -124 -49 -21 -15 -35 -27 -30 -26 39 2
216 59 239 76 37 28 24 27 -85 -1z"/>
<path d="M2145 796 c-25 -11 -63 -62 -53 -71 2 -2 26 17 53 41 52 45 52 53 0
30z"/>
<path d="M2637 718 c-32 -22 -56 -43 -53 -45 3 -3 33 15 67 41 77 57 66 60
-14 4z"/>
<path d="M2155 715 c-69 -22 -150 -63 -141 -72 2 -2 35 5 72 17 44 13 71 17
77 11 9 -9 90 39 103 61 9 14 -39 7 -111 -17z"/>
<path d="M2720 691 c-105 -32 -138 -47 -207 -95 -46 -32 -83 -59 -83 -61 0 -2
19 2 41 10 23 8 50 15 59 15 10 0 83 34 162 76 122 65 176 97 158 93 -3 -1
-61 -18 -130 -38z"/>
<path d="M2180 609 c-67 -24 -85 -39 -45 -39 16 0 46 12 67 26 32 22 47 37 36
33 -2 0 -28 -9 -58 -20z"/>
<path d="M2358 585 c-32 -9 -71 -34 -127 -81 -44 -37 -79 -69 -78 -71 2 -1 31
3 65 9 68 13 83 7 64 -22 -11 -18 -9 -20 22 -20 18 0 39 7 46 15 7 9 39 32 72
52 32 20 56 38 54 40 -2 3 -34 -4 -70 -15 -36 -11 -67 -17 -70 -14 -4 3 -23 6
-44 6 -20 1 -39 6 -42 11 -3 6 38 31 90 57 97 48 101 56 18 33z"/>
<path d="M2709 562 c-46 -14 -131 -67 -184 -115 -11 -10 221 106 245 122 20
14 5 12 -61 -7z"/>
<path d="M2550 516 c-34 -11 -193 -106 -187 -112 11 -12 117 32 171 71 83 59
85 64 16 41z"/>
<path d="M2520 312 l-124 -57 49 -3 c27 -2 58 -1 69 3 18 4 150 116 136 114
-3 -1 -61 -26 -130 -57z"/>
<path d="M2400 340 c-8 -5 -25 -10 -37 -10 -12 0 -43 -15 -69 -32 l-46 -33 40
-3 c34 -3 48 3 88 33 26 20 52 34 59 31 6 -2 12 2 12 10 0 16 -25 18 -47 4z"/>
</g>
</svg>
